<svg xmlns="http://www.w3.org/2000/svg" xmlns:xlink="http://www.w3.org/1999/xlink" width="500" zoomAndPan="magnify" viewBox="0 0 375 149.999998" height="200" preserveAspectRatio="xMidYMid meet" version="1.0"><defs><g/></defs><g fill="#737373" fill-opacity="1"><g transform="translate(15.000002, 148.856399)"><g><path d="M 57.3125 -53.265625 C 56.78125 -52.554688 56.25 -52.007812 55.71875 -51.625 C 55.1875 -51.25 54.429688 -51.0625 53.453125 -51.0625 C 52.566406 -51.0625 51.710938 -51.316406 50.890625 -51.828125 C 50.078125 -52.335938 49.140625 -52.890625 48.078125 -53.484375 C 47.015625 -54.085938 45.75 -54.644531 44.28125 -55.15625 C 42.820312 -55.664062 41.003906 -55.921875 38.828125 -55.921875 C 36.078125 -55.921875 33.691406 -55.421875 31.671875 -54.421875 C 29.660156 -53.421875 27.988281 -51.988281 26.65625 -50.125 C 25.332031 -48.269531 24.347656 -46.007812 23.703125 -43.34375 C 23.054688 -40.6875 22.734375 -37.695312 22.734375 -34.375 C 22.734375 -27.375 24.140625 -22.007812 26.953125 -18.28125 C 29.773438 -14.5625 33.625 -12.703125 38.5 -12.703125 C 40.1875 -12.703125 41.640625 -12.84375 42.859375 -13.125 C 44.078125 -13.414062 45.140625 -13.78125 46.046875 -14.21875 C 46.953125 -14.664062 47.738281 -15.15625 48.40625 -15.6875 C 49.070312 -16.21875 49.703125 -16.703125 50.296875 -17.140625 C 50.898438 -17.585938 51.5 -17.957031 52.09375 -18.25 C 52.695312 -18.539062 53.375 -18.6875 54.125 -18.6875 C 55.539062 -18.6875 56.648438 -18.15625 57.453125 -17.09375 L 62.703125 -10.4375 C 60.753906 -8.175781 58.671875 -6.300781 56.453125 -4.8125 C 54.234375 -3.332031 51.9375 -2.160156 49.5625 -1.296875 C 47.195312 -0.429688 44.796875 0.164062 42.359375 0.5 C 39.921875 0.832031 37.503906 1 35.109375 1 C 30.898438 1 26.910156 0.210938 23.140625 -1.359375 C 19.367188 -2.929688 16.0625 -5.222656 13.21875 -8.234375 C 10.382812 -11.253906 8.132812 -14.957031 6.46875 -19.34375 C 4.8125 -23.738281 3.984375 -28.75 3.984375 -34.375 C 3.984375 -39.382812 4.710938 -44.039062 6.171875 -48.34375 C 7.640625 -52.644531 9.789062 -56.367188 12.625 -59.515625 C 15.46875 -62.660156 18.984375 -65.128906 23.171875 -66.921875 C 27.359375 -68.722656 32.203125 -69.625 37.703125 -69.625 C 42.929688 -69.625 47.515625 -68.78125 51.453125 -67.09375 C 55.398438 -65.40625 58.953125 -62.96875 62.109375 -59.78125 Z M 57.3125 -53.265625 "/></g></g></g><g fill="#737373" fill-opacity="1"><g transform="translate(79.358675, 148.856399)"><g><path d="M 38.5 -69.625 C 43.644531 -69.625 48.320312 -68.800781 52.53125 -67.15625 C 56.738281 -65.519531 60.347656 -63.179688 63.359375 -60.140625 C 66.378906 -57.109375 68.707031 -53.421875 70.34375 -49.078125 C 71.988281 -44.734375 72.8125 -39.832031 72.8125 -34.375 C 72.8125 -28.925781 71.988281 -24.015625 70.34375 -19.640625 C 68.707031 -15.273438 66.378906 -11.5625 63.359375 -8.5 C 60.347656 -5.445312 56.738281 -3.097656 52.53125 -1.453125 C 48.320312 0.179688 43.644531 1 38.5 1 C 33.3125 1 28.597656 0.179688 24.359375 -1.453125 C 20.128906 -3.097656 16.503906 -5.445312 13.484375 -8.5 C 10.472656 -11.5625 8.132812 -15.273438 6.46875 -19.640625 C 4.8125 -24.015625 3.984375 -28.925781 3.984375 -34.375 C 3.984375 -39.832031 4.8125 -44.734375 6.46875 -49.078125 C 8.132812 -53.421875 10.472656 -57.109375 13.484375 -60.140625 C 16.503906 -63.179688 20.128906 -65.519531 24.359375 -67.15625 C 28.597656 -68.800781 33.3125 -69.625 38.5 -69.625 Z M 38.5 -12.765625 C 43.726562 -12.765625 47.601562 -14.570312 50.125 -18.1875 C 52.65625 -21.800781 53.921875 -27.175781 53.921875 -34.3125 C 53.921875 -41.40625 52.65625 -46.753906 50.125 -50.359375 C 47.601562 -53.972656 43.726562 -55.78125 38.5 -55.78125 C 33.132812 -55.78125 29.1875 -53.972656 26.65625 -50.359375 C 24.132812 -46.753906 22.875 -41.40625 22.875 -34.3125 C 22.875 -27.175781 24.132812 -21.800781 26.65625 -18.1875 C 29.1875 -14.570312 33.132812 -12.765625 38.5 -12.765625 Z M 38.5 -12.765625 "/></g></g></g><g fill="#737373" fill-opacity="1"><g transform="translate(156.150278, 148.856399)"><g><path d="M 7.578125 0 L 7.578125 -68.546875 L 18.890625 -68.546875 C 21.191406 -68.546875 22.71875 -67.484375 23.46875 -65.359375 L 24.53125 -60.90625 C 25.726562 -62.144531 26.957031 -63.296875 28.21875 -64.359375 C 29.488281 -65.421875 30.851562 -66.335938 32.3125 -67.109375 C 33.78125 -67.890625 35.363281 -68.503906 37.0625 -68.953125 C 38.769531 -69.398438 40.625 -69.625 42.625 -69.625 C 46.832031 -69.625 50.3125 -68.503906 53.0625 -66.265625 C 55.8125 -64.023438 57.894531 -61.039062 59.3125 -57.3125 C 60.414062 -59.488281 61.773438 -61.363281 63.390625 -62.9375 C 65.015625 -64.507812 66.789062 -65.78125 68.71875 -66.75 C 70.644531 -67.726562 72.679688 -68.453125 74.828125 -68.921875 C 76.984375 -69.390625 79.144531 -69.625 81.3125 -69.625 C 85.175781 -69.625 88.59375 -69.046875 91.5625 -67.890625 C 94.53125 -66.734375 97.019531 -65.035156 99.03125 -62.796875 C 101.050781 -60.554688 102.59375 -57.816406 103.65625 -54.578125 C 104.71875 -51.347656 105.25 -47.671875 105.25 -43.546875 L 105.25 0 L 86.90625 0 L 86.90625 -43.546875 C 86.90625 -51.578125 83.46875 -55.59375 76.59375 -55.59375 C 75.039062 -55.59375 73.609375 -55.335938 72.296875 -54.828125 C 70.992188 -54.316406 69.84375 -53.550781 68.84375 -52.53125 C 67.851562 -51.507812 67.078125 -50.242188 66.515625 -48.734375 C 65.960938 -47.234375 65.6875 -45.503906 65.6875 -43.546875 L 65.6875 0 L 47.34375 0 L 47.34375 -43.546875 C 47.34375 -47.890625 46.488281 -50.984375 44.78125 -52.828125 C 43.070312 -54.671875 40.554688 -55.59375 37.234375 -55.59375 C 35.109375 -55.59375 33.101562 -55.09375 31.21875 -54.09375 C 29.332031 -53.09375 27.570312 -51.707031 25.9375 -49.9375 L 25.9375 0 Z M 7.578125 0 "/></g></g></g><g fill="#38b6ff" fill-opacity="1"><g transform="translate(268.312487, 148.856399)"><g><path d="M 43.421875 -28.65625 C 38.941406 -28.4375 35.21875 -28.046875 32.25 -27.484375 C 29.28125 -26.929688 26.921875 -26.210938 25.171875 -25.328125 C 23.421875 -24.441406 22.175781 -23.429688 21.4375 -22.296875 C 20.707031 -21.171875 20.34375 -19.945312 20.34375 -18.625 C 20.34375 -15.957031 21.082031 -14.066406 22.5625 -12.953125 C 24.050781 -11.847656 26.128906 -11.296875 28.796875 -11.296875 C 31.847656 -11.296875 34.492188 -11.835938 36.734375 -12.921875 C 38.972656 -14.015625 41.203125 -15.710938 43.421875 -18.015625 Z M 6.046875 -59.046875 C 10.078125 -62.679688 14.53125 -65.394531 19.40625 -67.1875 C 24.289062 -68.988281 29.566406 -69.890625 35.234375 -69.890625 C 39.316406 -69.890625 42.960938 -69.222656 46.171875 -67.890625 C 49.390625 -66.554688 52.117188 -64.703125 54.359375 -62.328125 C 56.597656 -59.960938 58.316406 -57.140625 59.515625 -53.859375 C 60.710938 -50.578125 61.3125 -46.988281 61.3125 -43.09375 L 61.3125 0 L 52.921875 0 C 51.191406 0 49.875 -0.242188 48.96875 -0.734375 C 48.0625 -1.222656 47.320312 -2.242188 46.75 -3.796875 L 45.28125 -8.171875 C 43.550781 -6.671875 41.875 -5.34375 40.25 -4.1875 C 38.632812 -3.03125 36.960938 -2.066406 35.234375 -1.296875 C 33.503906 -0.523438 31.65625 0.0546875 29.6875 0.453125 C 27.71875 0.859375 25.515625 1.0625 23.078125 1.0625 C 20.054688 1.0625 17.304688 0.664062 14.828125 -0.125 C 12.347656 -0.925781 10.207031 -2.113281 8.40625 -3.6875 C 6.613281 -5.257812 5.226562 -7.21875 4.25 -9.5625 C 3.28125 -11.914062 2.796875 -14.625 2.796875 -17.6875 C 2.796875 -20.21875 3.4375 -22.742188 4.71875 -25.265625 C 6.007812 -27.796875 8.21875 -30.085938 11.34375 -32.140625 C 14.46875 -34.203125 18.632812 -35.910156 23.84375 -37.265625 C 29.050781 -38.617188 35.578125 -39.382812 43.421875 -39.5625 L 43.421875 -43.09375 C 43.421875 -47.382812 42.507812 -50.539062 40.6875 -52.5625 C 38.875 -54.582031 36.257812 -55.59375 32.84375 -55.59375 C 30.320312 -55.59375 28.21875 -55.289062 26.53125 -54.6875 C 24.84375 -54.09375 23.367188 -53.453125 22.109375 -52.765625 C 20.847656 -52.078125 19.660156 -51.429688 18.546875 -50.828125 C 17.441406 -50.234375 16.15625 -49.9375 14.6875 -49.9375 C 13.40625 -49.9375 12.332031 -50.253906 11.46875 -50.890625 C 10.601562 -51.535156 9.882812 -52.300781 9.3125 -53.1875 Z M 6.046875 -59.046875 "/></g></g></g><g fill="#38b6ff" fill-opacity="1"><g transform="translate(336.394393, 148.856399)"><g><path d="M 26.46875 -68.546875 L 26.46875 0 L 8.109375 0 L 8.109375 -68.546875 Z M 28.65625 -88.03125 C 28.65625 -86.476562 28.34375 -85.035156 27.71875 -83.703125 C 27.101562 -82.378906 26.273438 -81.207031 25.234375 -80.1875 C 24.191406 -79.164062 22.972656 -78.367188 21.578125 -77.796875 C 20.179688 -77.222656 18.6875 -76.9375 17.09375 -76.9375 C 15.582031 -76.9375 14.148438 -77.222656 12.796875 -77.796875 C 11.441406 -78.367188 10.253906 -79.164062 9.234375 -80.1875 C 8.222656 -81.207031 7.414062 -82.378906 6.8125 -83.703125 C 6.21875 -85.035156 5.921875 -86.476562 5.921875 -88.03125 C 5.921875 -89.582031 6.21875 -91.035156 6.8125 -92.390625 C 7.414062 -93.742188 8.222656 -94.929688 9.234375 -95.953125 C 10.253906 -96.972656 11.441406 -97.769531 12.796875 -98.34375 C 14.148438 -98.914062 15.582031 -99.203125 17.09375 -99.203125 C 18.6875 -99.203125 20.179688 -98.914062 21.578125 -98.34375 C 22.972656 -97.769531 24.191406 -96.972656 25.234375 -95.953125 C 26.273438 -94.929688 27.101562 -93.742188 27.71875 -92.390625 C 28.34375 -91.035156 28.65625 -89.582031 28.65625 -88.03125 Z M 28.65625 -88.03125 "/></g></g></g></svg>